<?xml version="1.0" standalone="no"?><!DOCTYPE svg PUBLIC "-//W3C//DTD SVG 1.1//EN" "http://www.w3.org/Graphics/SVG/1.1/DTD/svg11.dtd"><svg class="icon" width="200px" height="200.00px" viewBox="0 0 1024 1024" version="1.1" xmlns="http://www.w3.org/2000/svg"><path d="M512 42.666667C251.733333 42.666667 42.666667 251.733333 42.666667 512c0 147.2 68.266667 279.466667 172.8 364.8C296.533333 942.933333 398.933333 981.333333 512 981.333333s215.466667-38.4 296.533333-104.533333c106.666667-85.333333 172.8-217.6 172.8-364.8 0-260.266667-209.066667-469.333333-469.333333-469.333333z m0 896c-93.866667 0-179.2-29.866667-249.6-81.066667C290.133333 744.533333 392.533333 661.333333 512 661.333333s221.866667 83.2 249.6 196.266667C691.2 908.8 605.866667 938.666667 512 938.666667z m-170.666667-490.666667c0-93.866667 76.8-170.666667 170.666667-170.666667s170.666667 76.8 170.666667 170.666667-76.8 170.666667-170.666667 170.666667-170.666667-76.8-170.666667-170.666667z m454.4 381.866667c-27.733333-89.6-96-162.133333-183.466666-192 68.266667-36.266667 113.066667-106.666667 113.066666-187.733334 0-117.333333-96-213.333333-213.333333-213.333333s-213.333333 96-213.333333 213.333333c0 81.066667 44.8 151.466667 113.066666 187.733334-87.466667 32-155.733333 102.4-183.466666 192C140.8 750.933333 85.333333 637.866667 85.333333 512 85.333333 277.333333 277.333333 85.333333 512 85.333333s426.666667 192 426.666667 426.666667c0 125.866667-55.466667 238.933333-142.933334 317.866667z" /></svg>