<?xml version="1.0" standalone="no"?><!DOCTYPE svg PUBLIC "-//W3C//DTD SVG 1.1//EN" "http://www.w3.org/Graphics/SVG/1.1/DTD/svg11.dtd"><svg class="icon" width="200px" height="200.00px" viewBox="0 0 1024 1024" version="1.1" xmlns="http://www.w3.org/2000/svg"><path d="M888.51 148H136.44a31.25 31.25 0 0 0-31.21 31.21v742.58A31.25 31.25 0 0 0 136.44 953h752.07a31.25 31.25 0 0 0 31.21-31.21V179.18A31.25 31.25 0 0 0 888.51 148z m-29.32 744.5H165.76v-684h693.43z"  /><path d="M446.65 472.93H635v197.86H377.23v60.53h270.3a48.1 48.1 0 0 0 48-48V460.45a48.1 48.1 0 0 0-48-48H446.65v-80.86L334.43 443.8 446.65 556z"  /></svg>