<?xml version="1.0" standalone="no"?><!DOCTYPE svg PUBLIC "-//W3C//DTD SVG 1.1//EN" "http://www.w3.org/Graphics/SVG/1.1/DTD/svg11.dtd"><svg class="icon" width="200px" height="200.00px" viewBox="0 0 1024 1024" version="1.1" xmlns="http://www.w3.org/2000/svg"><path d="M923.524096 223.456256c0-6.194176-5.08928-11.200512-11.242496-11.200512L710.67136 212.255744c-6.194176 0-11.19744-5.088256-11.19744-11.282432L699.47392 73.380864c0-6.194176-5.050368-11.19744-11.200512-11.19744L336.715776 62.183424c-6.194176 0-11.241472 5.00224-11.241472 11.19744L325.474304 200.973312c0 6.194176-5.047296 11.282432-11.241472 11.282432L112.323584 212.255744c-6.151168 0-11.198464 5.006336-11.198464 11.200512L101.12512 350.200832c0 6.191104 5.047296 11.280384 11.198464 11.280384l52.342784 0c6.151168 0 11.198464 5.009408 11.198464 11.200512l0 574.846976c0 6.111232 5.005312 11.200512 11.198464 11.200512l649.632768 0c6.150144 0 11.241472-5.08928 11.241472-11.200512L847.937536 372.681728c0-6.191104 5.003264-11.200512 11.19744-11.200512l53.147648 0c6.153216 0 11.242496-5.088256 11.242496-11.280384L923.52512 223.456256zM400.257024 146.678784c0-6.194176 5.047296-11.19744 11.200512-11.19744L613.450752 135.481344c6.191104 0 11.19744 5.003264 11.19744 11.19744l0 54.294528c0 6.194176-5.006336 11.282432-11.19744 11.282432L411.456512 212.255744c-6.152192 0-11.200512-5.088256-11.200512-11.282432L400.256 146.678784zM774.299648 874.22976c0 6.111232-5.092352 11.200512-11.242496 11.200512L260.702208 885.430272c-6.194176 0-11.199488-5.08928-11.199488-11.200512L249.50272 372.681728c0-6.191104 5.005312-11.200512 11.199488-11.200512L763.057152 361.481216c6.150144 0 11.242496 5.009408 11.242496 11.200512L774.299648 874.22976z" fill="#707070" /><path d="M387.871744 808.992768c6.191104 0 11.196416-5.006336 11.196416-11.19744L399.06816 446.234624c0-6.191104-5.005312-11.200512-11.196416-11.200512l-51.156992 0c-6.194176 0-11.241472 5.009408-11.241472 11.200512l0 351.561728c0 6.191104 5.047296 11.19744 11.241472 11.19744L387.871744 808.993792z" fill="#707070" /><path d="M548.72064 446.234624c0-6.191104-5.092352-11.200512-11.241472-11.200512l-51.197952 0c-6.194176 0-11.200512 5.009408-11.200512 11.200512l0 351.561728c0 6.191104 5.006336 11.19744 11.200512 11.19744l51.197952 0c6.14912 0 11.241472-5.006336 11.241472-11.19744L548.72064 446.234624z" fill="#707070" /><path d="M697.1392 446.234624c0-6.191104-5.047296-11.200512-11.239424-11.200512l-51.15904 0c-6.191104 0-11.2384 5.009408-11.2384 11.200512l0 351.561728c0 6.191104 5.047296 11.19744 11.2384 11.19744l51.15904 0c6.192128 0 11.239424-5.006336 11.239424-11.19744L697.1392 446.234624z" fill="#707070" /></svg>