<?xml version="1.0" standalone="no"?><!DOCTYPE svg PUBLIC "-//W3C//DTD SVG 1.1//EN" "http://www.w3.org/Graphics/SVG/1.1/DTD/svg11.dtd"><svg class="icon" width="200px" height="200.00px" viewBox="0 0 1024 1024" version="1.1" xmlns="http://www.w3.org/2000/svg"><path d="M776.324 399.807H253.73c-41.193 0-74.63-33.482-74.63-74.64v-37.339c0-61.734 50.212-111.969 111.969-111.969h447.917c61.755 0 111.99 50.235 111.99 111.969v37.339c0 41.157-33.506 74.64-74.652 74.64M291.069 250.501c-20.586 0-37.339 16.776-37.339 37.327v37.339h522.639l-0.045-37.339c0-20.551-16.729-37.327-37.339-37.327H291.069z" fill="#8a8a8a" /><path d="M701.67 959.727H328.405c-61.778 0-111.99-50.259-111.99-111.99V362.48c0-20.595 16.706-37.313 37.315-37.313 20.654 0 37.339 16.718 37.339 37.313v485.258c0 20.55 16.73 37.325 37.336 37.325H701.67c20.586 0 37.315-16.774 37.315-37.325v-335.95c0-20.598 16.706-37.315 37.339-37.315 20.63 0 37.315 16.717 37.315 37.315v335.95c0 61.731-50.214 111.989-111.969 111.989M365.72 250.501c-20.63 0-37.315-16.741-37.315-37.327v-74.652c0-41.172 33.461-74.654 74.654-74.654h223.96c41.145 0 74.651 33.482 74.651 74.654v68.41c0 20.666-16.682 37.339-37.339 37.339-20.63 0-37.313-16.673-37.313-37.339v-68.41h-223.96v74.652c0.001 20.586-16.707 37.327-37.338 37.327" fill="#8a8a8a" /><path d="M403.059 922.389c-20.654 0-37.339-16.729-37.339-37.327v-410.59c0-20.598 16.685-37.339 37.339-37.339 20.607 0 37.315 16.741 37.315 37.339v410.59c0 20.598-16.708 37.327-37.315 37.327M627.019 810.399c-20.633 0-37.316-16.718-37.316-37.315V362.48c0-20.595 16.683-37.313 37.316-37.313 20.63 0 37.313 16.718 37.313 37.313v410.604c-0.001 20.597-16.683 37.315-37.313 37.315" fill="#8a8a8a" /></svg>