<?xml version="1.0" standalone="no"?><!DOCTYPE svg PUBLIC "-//W3C//DTD SVG 1.1//EN" "http://www.w3.org/Graphics/SVG/1.1/DTD/svg11.dtd"><svg class="icon" width="200px" height="200.00px" viewBox="0 0 1024 1024" version="1.1" xmlns="http://www.w3.org/2000/svg"><path d="M835.486 239.874c12.115 14.347 10.305 35.798-4.042 47.913-14.204 11.994-35.37 10.34-47.547-3.615l-0.366-0.427C687.753 170.318 531.324 128.793 391.9 179.784c-139.425 50.991-232.153 183.64-232.153 332.096 0 148.456 92.728 281.105 232.152 332.096 138.03 50.481 292.726 10.287 388.74-100.58l2.89-3.381c12.116-14.347 33.567-16.157 47.914-4.042 14.347 12.115 16.157 33.566 4.042 47.913-114.196 135.24-300.707 184.75-466.942 123.953C202.308 847.042 91.748 688.884 91.748 511.88s110.56-335.162 276.796-395.959c166.235-60.797 352.746-11.286 466.942 123.953zM802 400c0-6.7 7.7-10.5 13-6.3l141.9 112c4.1 3.2 4.1 9.4 0 12.6L815 630.3c-5.2 4.2-13 0.4-13-6.3v-76H488c-4.4 0-8-3.6-8-8v-56c0-4.4 3.6-8 8-8h314z" /></svg>